#!OML:ASF E:\I on waltz\AllaLogoMonkeySwing\Project 1\Capture day 1\Session 1\Subject1.ASF
:FULLY-SPECIFIED
:DEGREES
1418
root -0.00430666 21.1505 -2.75718 -7.46044 -3.15458 1.25407
lowerback 22.0156 0.36155 -2.33028
upperback 2.73655 0.184266 2.67844
thorax -9.32947 0.222577 4.23711
lowerneck -11.8002 1.76512 -0.212285
upperneck 23.984 3.65451 -4.53321
head 9.60734 1.17759 -1.10741
rclavicle -3.77691e-015 2.38542e-015
rhumerus 38.7648 22.9799 -36.3308
rradius 42.5107
rwrist -1.82675
rhand -5.7634 -387.619
rfingers 7.12502
rthumb 20.0598 -56.603
lclavicle -3.77691e-015 2.38542e-015
lhumerus 2.34564 -7.56666 46.4733
lradius 88.2044
lwrist 15.0068
lhand -21.7964 -22.6581
lfingers 7.12502
lthumb 4.60539 7.27187
rfemur -20.8627 -7.48712 15.0739
rtibia 70.1408
rfoot 9.43843 -6.67967
rtoes 29.7189
lfemur -17.2918 8.65816 -22.1831
ltibia 63.69
lfoot -0.716907 -7.80871
ltoes -34.2431
1419
root -0.0432303 21.1037 -2.10164 -8.17141 -2.96818 1.10593
lowerback 23.4647 0.402374 -2.3318
upperback 3.17765 0.203736 2.58257
thorax -9.61408 0.228424 4.14362
lowerneck -11.7042 1.7174 0.168691
upperneck 24.5417 3.53721 -4.56936
head 9.79011 1.14369 -1.20312
rclavicle -5.06901e-015 -2.78299e-014
rhumerus 36.0528 26.6054 -38.3722
rradius 39.9235
rwrist -1.01911
rhand -4.0427 -387.729
rfingers 7.12502
rthumb 21.713 -56.531
lclavicle -5.06901e-015 -2.78299e-014
lhumerus 0.570753 -9.75426 49.6824
lradius 85.372
lwrist 14.1734
lhand -19.609 -23.1898
lfingers 7.12502
lthumb 6.71723 6.68369
rfemur -23.9343 -6.95292 15.5581
rtibia 67.4208
rfoot 8.75163 -5.92453
rtoes 28.9742
lfemur -19.9368 6.97781 -22.046
ltibia 59.8887
lfoot -1.55011 -6.32565
ltoes -33.2232
1420
root -0.0855309 20.9999 -1.4233 -8.47555 -2.58701 0.840493
lowerback 24.4064 0.431123 -2.18752
upperback 3.49028 0.260008 2.54706
thorax -9.76662 0.247235 4.01341
lowerneck -11.896 1.58713 -0.167035
upperneck 25.3945 3.24592 -3.70006
head 10.1025 1.05722 -0.880228
rclavicle -4.47266e-015 3.10104e-014
rhumerus 33.1185 29.6979 -40.5261
rradius 37.4021
rwrist 1.06004
rhand -3.68201 -387.271
rfingers 7.12502
rthumb 22.0593 -56.0326
lclavicle -4.47266e-015 3.10104e-014
lhumerus -0.657677 -12.0399 52.7051
lradius 82.3887
lwrist 13.9517
lhand -18.2577 -24.8557
lfingers 7.12502
lthumb 8.02159 4.97205
rfemur -27.0125 -6.5254 16.0867
rtibia 64.1266
rfoot 8.26532 -5.32566
rtoes 28.0987
lfemur -22.6091 5.75696 -21.6419
ltibia 55.5469
lfoot -2.47182 -5.77558
ltoes -34.1263
1421
root -0.129897 20.839 -0.708117 -8.40537 -2.17087 0.453375
lowerback 24.5736 0.381806 -2.04507
upperback 3.85913 0.242941 2.69155
thorax -9.43879 0.224916 4.0944
lowerneck -12.1038 1.43802 -0.609474
upperneck 25.7205 3.0781 -3.40881
head 10.2464 0.962722 -0.722703
rclavicle 9.74045e-015 3.97569e-014
rhumerus 29.2159 32.0469 -43.1544
rradius 37.4451
rwrist 3.88976
rhand -3.09044 -387.115
rfingers 7.12502
rthumb 22.6272 -55.8085
lclavicle 9.74045e-015 3.97569e-014
lhumerus -1.939 -13.7001 55.6262
lradius 80.1332
lwrist 13.4646
lhand -16.5347 -25.3942
lfingers 7.12502
lthumb 9.6843 4.36315
rfemur -29.9826 -6.47294 16.6525
rtibia 60.3126
rfoot 7.83437 -4.72
rtoes 27.8149
lfemur -25.2172 5.03864 -21.1166
ltibia 50.802
lfoot -2.28859 -5.1781
ltoes -35.0004
1422
root -0.181694 20.638 0.03896 -8.04802 -1.73173 0.637971
lowerback 24.031 0.43908 -2.54248
upperback 4.03621 0.194058 2.67875
thorax -8.95203 0.204756 4.37068
lowerneck -11.5924 1.35291 -0.640073
upperneck 25.774 3.02622 -3.66935
head 10.1703 0.911965 -0.819404
rclavicle 9.93923e-015 -1.03368e-014
rhumerus 24.1751 34.9455 -45.5077
rradius 39.985
rwrist 5.06707
rhand -3.67857 -387.049
rfingers 7.12502
rthumb 22.0626 -55.8106
lclavicle 9.93923e-015 -1.03368e-014
lhumerus -5.29703 -15.3894 58.2663
lradius 80.438
lwrist 13.1956
lhand -15.3298 -25.3281
lfingers 7.12502
lthumb 10.8467 4.37182
rfemur -32.664 -6.45349 16.5566
rtibia 55.9079
rfoot 7.37338 -4.37459
rtoes 25.5776
lfemur -27.5869 4.83683 -21.3351
ltibia 45.936
lfoot -1.37244 -4.04311
ltoes -34.7218
1423
root -0.239588 20.369 0.817353 -8.07575 -1.34943 0.36782
lowerback 23.6444 0.424317 -2.68675
upperback 4.22371 0.152061 2.76211
thorax -8.53662 0.177806 4.54937
lowerneck -11.2177 1.36419 -0.590241
upperneck 26.1881 3.06263 -3.74722
head 10.2512 0.922036 -0.855765
rclavicle 7.55382e-015 -1.43125e-014
rhumerus 18.3352 38.947 -47.2189
rradius 44.7316
rwrist 3.48515
rhand -5.16394 -388.115
rfingers 7.12502
rthumb 20.6359 -57.0385
lclavicle 7.55382e-015 -1.43125e-014
lhumerus -10.0043 -17.3119 60.4117
lradius 82.636
lwrist 13.633
lhand -15.51 -23.8547
lfingers 7.12502
lthumb 10.6728 5.85426
rfemur -34.271 -6.15908 16.8443
rtibia 51.0949
rfoot 8.42914 -4.49459
rtoes 26.5911
lfemur -29.2084 4.92009 -21.0359
ltibia 41.0923
lfoot 2.14012 -4.18015
ltoes -36.2135
1424
root -0.296463 20.0348 1.62387 -8.67167 -1.10774 -0.914634
lowerback 23.829 0.116049 -2.01156
upperback 4.38685 -0.036903 3.26605
thorax -8.43466 0.0708603 4.77767
lowerneck -10.8894 1.61623 -0.839821
upperneck 26.6531 3.51436 -3.84475
head 10.3659 1.08817 -0.798287
rclavicle -9.14409e-015 -1.59028e-015
rhumerus 11.9757 44.0786 -48.2843
rradius 50.8822
rwrist 1.37623
rhand -5.42849 -388.667
rfingers 7.12502
rthumb 20.3817 -57.6176
lclavicle -9.14409e-015 -1.59028e-015
lhumerus -16.5815 -19.1564 62.3012
lradius 86.4159
lwrist 14.7869
lhand -16.5154 -22.7472
lfingers 7.12502
lthumb 9.70291 7.00928
rfemur -34.6442 -5.74069 18.0984
rtibia 45.9784
rfoot 10.035 -4.81853
rtoes 28.8502
lfemur -30.1988 5.22484 -19.6215
ltibia 36.8871
lfoot 6.43778 -4.42353
ltoes -37.7191
1425
root -0.344917 19.6362 2.46282 -9.1555 -0.471645 0.152477
lowerback 23.447 0.208446 -3.27666
upperback 4.41411 -0.258573 2.88779
thorax -8.17526 -0.0139084 5.14722
lowerneck -11.2007 1.69465 -1.26538
upperneck 27.9437 3.47882 -2.72785
head 10.8745 1.12876 -0.331506
rclavicle -1.88845e-014 2.78299e-014
rhumerus 3.32154 48.3045 -51.1954
rradius 57.7489
rwrist -1.68366
rhand -7.99819 -390.864
rfingers 7.12502
rthumb 17.9106 -60.0588
lclavicle -1.88845e-014 2.78299e-014
lhumerus -23.627 -21.8583 63.5387
lradius 91.0792
lwrist 15.2303
lhand -17.0699 -23.1058
lfingers 7.12502
lthumb 9.16789 6.67493
rfemur -35.1365 -5.56928 16.5632
rtibia 41.2547
rfoot 13.17 -5.31278
rtoes 28.2893
lfemur -30.7904 4.89693 -20.8443
ltibia 33.3666
lfoot 10.2667 -4.1463
ltoes -39.0484
1426
root -0.392078 19.1606 3.33255 -10.0532 -0.0928497 -0.694912
lowerback 23.0686 -0.00473445 -2.50343
upperback 4.57696 -0.341749 2.90892
thorax -7.79544 -0.084302 4.73237
lowerneck -10.9946 1.75524 -0.961335
upperneck 28.2393 3.46198 -2.579
head 10.9454 1.16787 -0.33439
rclavicle -6.85807e-015 -1.03368e-014
rhumerus -6.60802 51.3381 -55.2401
rradius 64.5092
rwrist -1.53904
rhand -7.09605 -391.527
rfingers 7.12502
rthumb 18.7784 -60.6402
lclavicle -6.85807e-015 -1.03368e-014
lhumerus -31.3178 -24.6215 64.5548
lradius 96.4105
lwrist 15.4892
lhand -16.7132 -22.2879
lfingers 7.12502
lthumb 9.51209 7.47744
rfemur -34.6214 -4.64002 16.8262
rtibia 37.2416
rfoot 16.1965 -7.11575
rtoes 28.6287
lfemur -30.6814 4.14033 -19.6378
ltibia 31.1533
lfoot 12.5347 -4.67321
ltoes -38.5837
